<?xml version="1.0" encoding="utf-8"?>
<!-- Generator: Adobe Illustrator 23.0.3, SVG Export Plug-In . SVG Version: 6.00 Build 0)  -->
<svg version="1.1" id="Layer_1" xmlns="http://www.w3.org/2000/svg" xmlns:xlink="http://www.w3.org/1999/xlink" x="0px" y="0px"
	 viewBox="0 0 724 724.3" style="enable-background:new 0 0 724 724.3;" xml:space="preserve">
<style type="text/css">
	.st0{fill-rule:evenodd;clip-rule:evenodd;fill:url(#SVGID_1_);}
	.st1{fill-rule:evenodd;clip-rule:evenodd;fill:#563F05;}
</style>
<linearGradient id="SVGID_1_" gradientUnits="userSpaceOnUse" x1="55.9223" y1="758.4219" x2="56.9223" y2="757.4219" gradientTransform="matrix(721.094 0 0 -482.937 -40324.3594 366354.6563)">
	<stop  offset="1.274966e-07" style="stop-color:#BFAF8D"/>
	<stop  offset="1" style="stop-color:#A89464"/>
</linearGradient>
<path class="st0" d="M361.5,567.6C162.3,567.6,0.9,459.5,0.9,326.1c0-133.4,161.4-241.5,360.5-241.5C560.6,84.7,722,192.8,722,326.1
	C722,459.5,560.6,567.6,361.5,567.6z M416.6,179.1c-151.4,0-274,73.9-274,165.1s122.7,165.1,274,165.1c151.4,0,263-50.5,263-165.1
	C679.7,229.6,568,179.1,416.6,179.1z"/>
<path class="st1" d="M550,458.7c0,0,21.8,6.6,34.5,13c4.4,2.2,12,6.7,17.5,12.5c5.4,5.7,8,11.5,8,11.5l86,145l-139,0.1l-65-122.1
	c0,0-13.3-22.9-21.5-29.5c-6.8-5.5-9.7-7.5-16.5-7.5c-4.7,0-33,0-33,0l0,159l-123,0.1V234.6h247c0,0,112.5,2,112.5,109.1
	S550,458.7,550,458.7z M496.5,322.7l-74.5,0l0,69.1l74.5,0c0,0,34.5-0.1,34.5-35.1C531,320.8,496.5,322.7,496.5,322.7z"/>
</svg>
